<?xml version="1.0" encoding="utf-8"?>
<!-- Generator: Adobe Illustrator 24.2.0, SVG Export Plug-In . SVG Version: 6.00 Build 0)  -->
<svg version="1.1" id="Layer_1" xmlns="http://www.w3.org/2000/svg" xmlns:xlink="http://www.w3.org/1999/xlink" x="0px" y="0px"
	 viewBox="0 0 33 32" style="enable-background:new 0 0 33 32;" xml:space="preserve">
<style type="text/css">
	.st0{fill:#28333B;}
</style>
<g id="Icon_ionic-ios-chatbubbles" transform="translate(-3.375 -3.375)">
	<path id="Path_7" class="st0" d="M32.41,23.98c0-0.3,0.08-0.6,0.23-0.86c0.05-0.08,0.09-0.15,0.15-0.22
		c1.26-1.88,1.94-4.09,1.94-6.35c-0.12-6.6-5.57-11.86-12.18-11.74c-0.01,0-0.02,0-0.03,0c-5.69-0.08-10.67,3.81-11.97,9.35
		c-0.17,0.79-0.26,1.59-0.26,2.4c0.02,6.59,5.37,11.91,11.96,11.89c0.02,0,0.04,0,0.06,0c1.12-0.05,2.24-0.23,3.32-0.54
		c0.8-0.22,1.58-0.51,1.79-0.58c0.21-0.08,0.43-0.12,0.65-0.12c0.24,0,0.49,0.05,0.71,0.14l3.99,1.41c0.09,0.04,0.18,0.06,0.27,0.07
		c0.31,0,0.56-0.25,0.56-0.56c0,0,0,0,0-0.01c0-0.06-0.02-0.13-0.03-0.19L32.41,23.98z"/>
	<path id="Path_8" class="st0" d="M24.5,29.03c-0.25,0.07-0.58,0.15-0.93,0.23c-0.79,0.18-1.59,0.29-2.39,0.32
		C14.6,29.63,9.21,24.33,9.16,17.75c0-0.02,0-0.04,0-0.06c0.01-0.5,0.04-1,0.11-1.5c0.04-0.3,0.09-0.6,0.16-0.9
		c0.07-0.32,0.16-0.63,0.25-0.94l-0.57,0.49c-2.29,1.98-3.61,4.85-3.63,7.87c0,2.05,0.6,4.06,1.74,5.77
		c0.16,0.25,0.25,0.44,0.22,0.56s-0.84,4.36-0.84,4.36c-0.04,0.2,0.03,0.41,0.19,0.54c0.1,0.08,0.23,0.13,0.36,0.13
		c0.07,0,0.14-0.01,0.2-0.04l3.94-1.56c0.27-0.11,0.58-0.1,0.84,0.01c1.36,0.54,2.81,0.83,4.27,0.84c3.25,0.01,6.34-1.4,8.44-3.87
		c0,0,0.23-0.31,0.49-0.67C25.09,28.86,24.8,28.95,24.5,29.03z"/>
</g>
</svg>
