<?xml version="1.0" encoding="utf-8"?>
<!-- Generator: Adobe Illustrator 24.2.0, SVG Export Plug-In . SVG Version: 6.00 Build 0)  -->
<svg version="1.1" id="Layer_1" xmlns="http://www.w3.org/2000/svg" xmlns:xlink="http://www.w3.org/1999/xlink" x="0px" y="0px"
	 viewBox="0 0 27 24" style="enable-background:new 0 0 27 24;" xml:space="preserve">
<style type="text/css">
	.st0{fill:#FFFFFF;}
</style>
<g id="Group_1" transform="translate(-1777 -411.558)">
	<path id="Rectangle_6" class="st0" d="M1780.84,420.31h19c1.66,0,3,1.34,3,3l0,0c0,1.66-1.34,3-3,3h-19c-1.66,0-3-1.34-3-3l0,0
		C1777.84,421.65,1779.18,420.31,1780.84,420.31z"/>
	<path id="Rectangle_7" class="st0" d="M1793.96,412.99l8.49,8.49c1.17,1.17,1.17,3.07,0,4.24l0,0c-1.17,1.17-3.07,1.17-4.24,0
		l-8.49-8.49c-1.17-1.17-1.17-3.07,0-4.24l0,0C1790.89,411.82,1792.79,411.82,1793.96,412.99z"/>
	<path id="Rectangle_8" class="st0" d="M1789.71,429.89l8.49-8.49c1.17-1.17,3.07-1.17,4.24,0l0,0c1.17,1.17,1.17,3.07,0,4.24
		l-8.49,8.49c-1.17,1.17-3.07,1.17-4.24,0l0,0C1788.54,432.96,1788.54,431.06,1789.71,429.89z"/>
</g>
</svg>
