<?xml version="1.0" encoding="utf-8"?>
<!-- Generator: Adobe Illustrator 24.2.0, SVG Export Plug-In . SVG Version: 6.00 Build 0)  -->
<svg version="1.1" id="Layer_1" xmlns="http://www.w3.org/2000/svg" xmlns:xlink="http://www.w3.org/1999/xlink" x="0px" y="0px"
	 viewBox="0 0 1067 290" style="enable-background:new 0 0 1067 290;" xml:space="preserve">
<style type="text/css">
	.st0{fill:#00D1A6;}
	.st1{fill:#FAFAFA;}
	.st2{fill:#323E47;}
</style>
<g id="today_" transform="translate(-673 -441.79)">
	<path id="Path_27" class="st0" d="M1022.72,732.07H818.74c-80.24,0-145.28-65.05-145.28-145.28V460.02
		c0-10.23,8.29-18.52,18.52-18.52h330.76c80.24,0,145.28,65.04,145.28,145.27c0,0,0,0.01,0,0.01l0,0
		C1168.01,667.03,1102.96,732.07,1022.72,732.07z"/>
	<g id="Group_73" transform="translate(688.908 450.54)">
		<path id="Path_28" class="st1" d="M160.01,75.28V226.5c0,3.47-2.81,6.28-6.28,6.28h-30.1c-3.96,0-7.18-3.22-7.18-7.18V75.28H67.88
			c-3.71,0-6.73-3-6.74-6.72V43.39c0-3.21,2.6-5.81,5.81-5.81h142.22c3.38-0.01,6.13,2.73,6.14,6.12c0,0.01,0,0.01,0,0.02V68.4
			c0,3.8-3.08,6.88-6.88,6.88H160.01z"/>
		<path id="Path_29" class="st1" d="M406.03,205.83c-40.95,38.53-104.82,38.53-145.77,0c-39.47-39.82-39.47-104,0-143.82
			c40.95-38.53,104.82-38.53,145.77,0C445.5,101.82,445.5,166.01,406.03,205.83z M391.24,134.07c0.36-16.45-5.65-32.4-16.76-44.54
			c-20.34-22.74-55.27-24.68-78.01-4.34c-1.53,1.37-2.98,2.81-4.34,4.34c-22.34,25.44-22.34,63.51,0,88.95
			c20.57,22.74,55.68,24.5,78.42,3.94c1.38-1.25,2.69-2.56,3.94-3.94C385.61,166.4,391.62,150.48,391.24,134.07L391.24,134.07z"/>
	</g>
	<g id="Group_74" transform="translate(779.683 451.617)">
		<path id="Path_30" class="st2" d="M556.66,62.78c18.62,17.04,27.93,40.73,27.93,71.07s-9.08,54.35-27.23,72.05
			c-18.16,17.7-45.85,26.54-83.08,26.53h-60.17c-3.63,0-6.57-2.94-6.57-6.57l0,0V43.84c0-3.66,2.96-6.62,6.62-6.63
			c0,0,0.01,0,0.01,0h62.36C511.33,37.22,538.04,45.74,556.66,62.78z M524.7,178.81c10.71-10.06,16.06-24.67,16.06-43.85
			c-0.01-19.18-5.36-33.93-16.06-44.26c-10.71-10.34-27.14-15.5-49.29-15.49h-17.96c-3.49,0-6.33,2.83-6.33,6.33c0,0,0,0,0,0v105.82
			c0,3.6,2.91,6.52,6.52,6.53c0,0,0.01,0,0.01,0h21.12C498.68,193.9,513.99,188.87,524.7,178.81L524.7,178.81z"/>
		<path id="Path_31" class="st2" d="M753.92,228.1l-16.28-37.83h-81.82l-16.45,38.21c-1.03,2.41-3.4,3.96-6.02,3.96h-36.99
			c-1.84-0.01-3.33-1.5-3.32-3.34c0-0.45,0.09-0.89,0.27-1.31l80.51-186.33c1.11-2.57,3.64-4.23,6.43-4.23h32.87
			c2.84,0,5.42,1.69,6.54,4.31l80.01,185.19c0.89,2.07-0.06,4.48-2.14,5.37c-0.51,0.22-1.06,0.33-1.62,0.33H760.5
			C757.64,232.43,755.05,230.73,753.92,228.1z M696.87,95.31l-24.56,56.69h48.88L696.87,95.31z"/>
		<path id="Path_32" class="st2" d="M888.59,232.43h-30.77c-3.46,0-6.26-2.8-6.26-6.26c0,0,0,0,0,0v-66.84
			c0-2.61-0.68-5.17-1.98-7.43L786.64,41.9c-0.86-1.5-0.34-3.41,1.16-4.26c0.47-0.27,1.01-0.41,1.55-0.41h36.84
			c3.08,0,5.93,1.64,7.48,4.31l39.67,68.3l40.01-68.9c1.34-2.3,3.79-3.71,6.45-3.71h37.23c1.82,0,3.3,1.48,3.29,3.3
			c0,0.57-0.15,1.13-0.43,1.63l-62.85,109.86c-1.26,2.19-1.92,4.67-1.93,7.19v66.68C895.12,229.49,892.21,232.42,888.59,232.43
			C888.6,232.43,888.59,232.43,888.59,232.43z"/>
	</g>
</g>
</svg>
